<?xml version="1.0" standalone="no"?>
<!DOCTYPE svg PUBLIC "-//W3C//DTD SVG 20010904//EN"
 "http://www.w3.org/TR/2001/REC-SVG-20010904/DTD/svg10.dtd">
<svg version="1.0" xmlns="http://www.w3.org/2000/svg"
 width="250.000000pt" height="250.000000pt" viewBox="0 0 250.000000 250.000000"
 preserveAspectRatio="xMidYMid meet">
<metadata>
Created by potrace 1.14, written by Peter Selinger 2001-2017
</metadata>
<g transform="translate(0.000000,250.000000) scale(0.100000,-0.100000)"
fill="#000000" stroke="none">
<path d="M0 1250 l0 -1250 1250 0 1250 0 0 1250 0 1250 -1250 0 -1250 0 0
-1250z m1310 834 c0 -14 -4 -23 -10 -19 -5 3 -10 15 -10 26 0 10 5 19 10 19 6
0 10 -12 10 -26z m170 -5 c158 -43 329 -156 433 -284 66 -82 69 -89 47 -103
-16 -10 -24 -4 -61 46 -116 153 -281 261 -461 303 -50 12 -58 17 -58 36 0 28
6 28 100 2z m-423 -5 c-3 -3 -12 -4 -19 -1 -8 3 -5 6 6 6 11 1 17 -2 13 -5z
m110 -71 c-3 -10 -5 -2 -5 17 0 19 2 27 5 18 2 -10 2 -26 0 -35z m-158 -36 c1
-5 -3 -5 -9 -2 -5 3 -10 16 -9 28 0 21 1 21 9 2 5 -11 9 -24 9 -28z m-259 -31
c0 -2 -8 -10 -17 -17 -16 -13 -17 -12 -4 4 13 16 21 21 21 13z m110 -50 c0 -6
-7 -2 -15 8 -8 11 -15 25 -15 30 0 6 7 2 15 -8 8 -11 15 -25 15 -30z m590 -5
c95 -30 186 -87 266 -166 80 -80 121 -146 159 -258 102 -305 -44 -657 -330
-796 -97 -47 -154 -62 -260 -68 -199 -10 -361 52 -500 192 -132 132 -195 283
-195 465 0 183 64 337 194 465 91 91 181 144 298 175 96 27 271 22 368 -9z
m-750 16 c0 -1 -24 -25 -52 -52 l-53 -50 50 53 c46 48 55 57 55 49z m1086 -69
l29 -33 -32 29 c-18 17 -33 31 -33 33 0 8 8 1 36 -29z m-1068 -28 c7 -11 9
-20 4 -20 -4 0 -13 9 -20 20 -7 11 -9 20 -4 20 4 0 13 -9 20 -20z m-128 -24
c0 -2 -8 -10 -17 -17 -16 -13 -17 -12 -4 4 13 16 21 21 21 13z m1185 -46 c10
-11 16 -20 13 -20 -3 0 -13 9 -23 20 -10 11 -16 20 -13 20 3 0 13 -9 23 -20z
m-1155 -72 c0 -5 -9 -3 -20 4 -11 7 -20 16 -20 20 0 5 9 3 20 -4 11 -7 20 -16
20 -20z m1201 15 c13 -16 12 -17 -3 -4 -17 13 -22 21 -14 21 2 0 10 -8 17 -17z
m230 -112 c22 -59 43 -148 54 -223 6 -47 5 -48 -19 -48 -22 0 -26 4 -26 31 0
45 -29 166 -57 237 -21 52 -23 65 -12 78 12 14 14 14 26 -2 7 -10 22 -43 34
-73z m-151 -26 c0 -5 -5 -3 -10 5 -5 8 -10 20 -10 25 0 6 5 3 10 -5 5 -8 10
-19 10 -25z m-1351 -21 c12 -12 -8 -10 -34 2 l-30 14 30 -6 c16 -3 32 -8 34
-10z m-132 -116 c-3 -8 -6 -5 -6 6 -1 11 2 17 5 13 3 -3 4 -12 1 -19z m1530
-30 c-3 -8 -6 -5 -6 6 -1 11 2 17 5 13 3 -3 4 -12 1 -19z m-1447 -18 c12 -8
12 -10 -5 -10 -11 0 -27 5 -35 10 -12 8 -12 10 5 10 11 0 27 -5 35 -10z m1457
-117 c-3 -10 -5 -2 -5 17 0 19 2 27 5 18 2 -10 2 -26 0 -35z m-1515 -82 c17
-150 86 -307 194 -434 54 -65 63 -81 53 -93 -10 -13 -18 -9 -52 23 -127 123
-222 322 -242 508 -7 66 -7 67 16 63 22 -3 25 -10 31 -67z m1662 12 c-17 -146
-67 -280 -143 -390 -70 -102 -73 -104 -95 -87 -19 14 -19 15 6 41 92 99 188
331 188 457 0 32 3 36 26 36 25 0 25 -1 18 -57z m-1547 -45 c-3 -7 -5 -2 -5
12 0 14 2 19 5 13 2 -7 2 -19 0 -25z m10 -40 c-3 -8 -6 -5 -6 6 -1 11 2 17 5
13 3 -3 4 -12 1 -19z m22 -63 c0 -5 -4 -3 -9 5 -5 8 -9 22 -9 30 0 16 17 -16
18 -35z m112 -202 c13 -16 12 -17 -3 -4 -10 7 -18 15 -18 17 0 8 8 3 21 -13z
m1119 13 c0 -2 -8 -10 -17 -17 -16 -13 -17 -12 -4 4 13 16 21 21 21 13z m-48
-58 c-10 -10 -2 -23 35 -63 l48 -50 -52 49 c-40 38 -50 53 -41 63 6 7 13 13
16 13 3 0 1 -5 -6 -12z m-1017 -18 c10 -11 16 -20 13 -20 -3 0 -13 9 -23 20
-10 11 -16 20 -13 20 3 0 13 -9 23 -20z m960 -138 c-6 -7 -35 18 -35 31 0 5 9
2 20 -8 11 -10 18 -20 15 -23z m135 35 c0 -2 -10 -12 -22 -23 l-23 -19 19 23
c18 21 26 27 26 19z m-1062 -66 c13 -12 20 -25 16 -35 -8 -20 -18 -20 -49 0
-20 13 -23 20 -14 35 12 23 18 23 47 0z m781 -41 c11 -24 11 -24 -3 -6 -9 11
-16 24 -16 30 0 12 5 7 19 -24z m-444 -93 c79 -11 85 -13 85 -35 0 -22 -2 -22
-52 -16 -80 10 -195 41 -255 69 -47 21 -53 27 -44 43 10 19 14 18 96 -15 50
-20 121 -39 170 -46z m297 38 c3 -14 1 -25 -3 -25 -5 0 -9 6 -9 14 0 8 -3 22
-7 32 -4 11 -3 15 4 11 6 -4 13 -18 15 -32z"/>
<path d="M1110 1885 c-182 -41 -361 -182 -440 -346 -54 -112 -74 -209 -67
-324 6 -92 26 -180 40 -173 4 1 22 -27 41 -64 64 -127 163 -229 277 -285 32
-15 58 -33 58 -40 1 -16 52 -31 151 -45 241 -32 491 86 623 294 74 116 116
281 103 403 -9 80 -36 175 -50 175 -6 0 -23 26 -39 58 -54 113 -160 218 -280
276 -38 18 -68 37 -67 42 5 33 -243 53 -350 29z m262 -46 c29 -6 91 -29 137
-50 202 -94 341 -315 341 -544 0 -69 -25 -185 -43 -200 -7 -6 -25 -37 -42 -70
-40 -83 -160 -202 -245 -243 -35 -18 -67 -37 -70 -42 -3 -5 -35 -17 -70 -26
-84 -21 -228 -15 -321 15 -171 54 -327 212 -382 386 -17 55 -22 94 -22 185 0
105 19 220 33 205 3 -3 18 20 32 52 38 84 117 173 205 232 42 28 83 51 90 51
8 0 18 7 22 15 20 36 225 57 335 34z"/>
<path d="M1102 1806 c-147 -36 -300 -160 -365 -297 -49 -102 -60 -149 -59
-259 1 -268 189 -507 440 -559 75 -16 208 -14 276 4 180 47 337 194 399 374
25 70 33 212 18 294 -40 206 -211 388 -417 442 -70 18 -218 18 -292 1z m88
-46 c0 -5 -16 -12 -35 -16 -35 -6 -43 -22 -29 -58 8 -21 54 -21 54 -1 0 8 -9
15 -20 15 -28 0 -25 17 5 22 30 6 35 2 35 -33 0 -28 -15 -39 -56 -39 -26 0
-44 30 -44 75 0 19 7 27 33 34 43 12 57 13 57 1z m137 -6 c3 -9 1 -25 -5 -34
-6 -10 -8 -27 -5 -39 8 -29 -11 -26 -25 4 -6 14 -18 25 -27 25 -9 0 -15 -9
-15 -25 0 -14 -5 -25 -11 -25 -6 0 -9 14 -7 33 3 29 6 32 41 35 44 4 50 22 8
22 -17 0 -33 5 -36 10 -4 6 10 10 35 10 28 0 43 -5 47 -16z m121 -77 c2 -35
-1 -57 -8 -57 -5 0 -10 21 -10 46 0 40 -2 45 -15 34 -11 -9 -12 -16 -5 -25 8
-9 2 -14 -21 -19 -18 -3 -34 -5 -36 -3 -7 7 70 88 81 84 6 -2 12 -29 14 -60z
m-376 4 c20 -41 15 -55 -24 -72 -29 -12 -33 -11 -54 15 -30 34 -30 60 -1 81
32 23 60 15 79 -24z m484 -43 l-6 -39 31 17 c59 30 62 -12 5 -65 -31 -30 -34
-14 -4 24 l21 27 -33 -17 c-42 -22 -57 -9 -41 37 l11 33 -25 -28 c-40 -45 -48
-26 -9 21 42 49 59 46 50 -10z m-617 -17 c6 -10 8 -21 4 -24 -3 -3 6 -9 21
-13 35 -8 23 -25 -13 -18 -31 7 -50 -11 -32 -29 23 -23 10 -29 -14 -7 l-25 24
20 21 c20 21 27 45 13 45 -4 0 -17 -10 -30 -22 -13 -12 -26 -18 -30 -14 -10 9
43 56 62 56 8 0 19 -8 24 -19z m-79 -116 c0 -9 -6 -24 -12 -36 -11 -17 -10
-22 5 -30 30 -17 18 -30 -13 -14 -30 15 -30 16 -14 46 21 42 8 51 -21 14 -13
-16 -27 -26 -30 -23 -7 7 22 58 39 70 14 9 46 -10 46 -27z m844 16 c3 -5 -11
-30 -31 -57 -20 -26 -38 -43 -41 -36 -2 6 9 27 23 47 15 19 25 35 22 35 -18 0
-37 -14 -37 -28 0 -13 -2 -13 -18 1 -10 10 -21 14 -24 11 -3 -3 -9 -1 -12 5
-4 6 5 13 21 17 15 3 33 7 38 9 20 7 54 5 59 -4z m-704 -600 c0 -6 -4 -13 -10
-16 -5 -3 -10 -11 -10 -17 0 -10 16 -8 53 7 10 4 17 3 17 -3 0 -6 -9 -14 -20
-17 -15 -5 -20 -15 -20 -41 0 -19 -4 -34 -10 -34 -5 0 -10 13 -10 29 0 37 -17
49 -35 25 -26 -37 -26 -5 1 35 25 39 44 52 44 32z m510 -1 c0 -6 -11 -16 -25
-22 -14 -6 -25 -14 -25 -18 0 -17 15 -19 37 -4 19 12 27 13 39 3 21 -18 17
-45 -11 -63 -38 -25 -54 -18 -20 9 34 28 27 44 -12 26 -23 -11 -29 -10 -40 5
-19 26 -16 37 15 56 31 20 42 22 42 8z m-130 -25 c0 -8 -4 -15 -10 -15 -5 0
-7 7 -4 15 4 8 8 15 10 15 2 0 4 -7 4 -15z m-246 -56 c9 -47 7 -89 -4 -89 -5
0 -10 18 -10 41 0 28 -4 39 -12 36 -7 -2 -12 -14 -10 -27 1 -16 -2 -21 -13
-17 -8 4 -17 2 -20 -3 -7 -12 -25 -13 -25 -2 0 12 70 92 80 92 4 0 10 -14 14
-31z m302 -4 c20 -49 18 -54 -23 -72 -36 -14 -38 -14 -55 7 -23 29 -23 76 0
89 35 21 62 13 78 -24z m-230 -7 c-3 -13 -6 -38 -6 -55 0 -18 -4 -33 -10 -33
-11 0 -13 52 -4 88 4 12 11 22 16 22 6 0 8 -10 4 -22z m109 1 c4 -12 2 -26 -4
-32 -7 -7 -7 -16 0 -29 15 -28 1 -36 -17 -10 -19 27 -44 29 -44 2 0 -11 -4
-20 -10 -20 -5 0 -10 14 -10 30 0 23 5 30 19 30 11 0 26 3 35 6 29 11 16 24
-25 24 -24 0 -38 4 -34 10 3 6 24 10 45 10 30 0 40 -4 45 -21z"/>
<path d="M1006 1687 c-15 -11 -16 -17 -5 -40 13 -30 21 -32 50 -17 18 10 18
13 4 40 -17 34 -23 36 -49 17z"/>
<path d="M1363 834 c-10 -27 13 -63 37 -57 28 7 32 17 20 47 -11 29 -47 36
-57 10z"/>
</g>
</svg>
